name baseline.mot
datacolumns 19
datarows 33
range 1.43666700000000 1.48999000000000
endheader
time	ground_force1_vx	ground_force1_vy	ground_force1_vz	ground_force1_px	ground_force1_py	ground_force1_pz	ground_force2_vx	ground_force2_vy	ground_force2_vz	ground_force2_px	ground_force2_py	ground_force2_pz	ground_torque1_x	ground_torque1_y	ground_torque1_z	ground_torque2_x	ground_torque2_y	ground_torque2_z	
1.43666700000000	1.14438200000000	732.70535800000005	48.49834900000000	0.02318400000000	0.00000000000000	0.10872200000000	0.00000000000000	0.00000000000000	0.00000000000000	0.00000000000000	0.00000000000000	0.00000000000000	0.00000000000000	1.60815300000000	0.00000000000000	0.00000000000000	0.00000000000000	0.00000000000000	
1.43832400000000	0.65964100000000	733.28528200000005	48.51378400000000	0.02209800000000	0.00000000000000	0.10870100000000	0.00000000000000	0.00000000000000	0.00000000000000	0.00000000000000	0.00000000000000	0.00000000000000	0.00000000000000	1.62682900000000	0.00000000000000	0.00000000000000	0.00000000000000	0.00000000000000	
1.43999400000000	0.17618700000000	733.85931800000003	48.52940600000000	0.02101700000000	0.00000000000000	0.10868100000000	0.00000000000000	0.00000000000000	0.00000000000000	0.00000000000000	0.00000000000000	0.00000000000000	0.00000000000000	1.64542100000000	0.00000000000000	0.00000000000000	0.00000000000000	0.00000000000000	
1.44166500000000	-0.30581900000000	734.42739200000005	48.54529600000000	0.01994100000000	0.00000000000000	0.10866100000000	0.00000000000000	0.00000000000000	0.00000000000000	0.00000000000000	0.00000000000000	0.00000000000000	0.00000000000000	1.66391400000000	0.00000000000000	0.00000000000000	0.00000000000000	0.00000000000000	
1.44333100000000	-0.78623000000000	734.98949600000003	48.56154700000000	0.01887000000000	0.00000000000000	0.10864000000000	0.00000000000000	0.00000000000000	0.00000000000000	0.00000000000000	0.00000000000000	0.00000000000000	0.00000000000000	1.68229600000000	0.00000000000000	0.00000000000000	0.00000000000000	0.00000000000000	
1.44499700000000	-1.26491400000000	735.54567899999995	48.57826600000000	0.01780400000000	0.00000000000000	0.10862000000000	0.00000000000000	0.00000000000000	0.00000000000000	0.00000000000000	0.00000000000000	0.00000000000000	0.00000000000000	1.70055700000000	0.00000000000000	0.00000000000000	0.00000000000000	0.00000000000000	
1.44666500000000	-1.74175100000000	736.09604800000000	48.59557100000000	0.01674400000000	0.00000000000000	0.10860000000000	0.00000000000000	0.00000000000000	0.00000000000000	0.00000000000000	0.00000000000000	0.00000000000000	0.00000000000000	1.71868800000000	0.00000000000000	0.00000000000000	0.00000000000000	0.00000000000000	
1.44833100000000	-2.21663700000000	736.64076399999999	48.61358900000000	0.01569000000000	0.00000000000000	0.10858000000000	0.00000000000000	0.00000000000000	0.00000000000000	0.00000000000000	0.00000000000000	0.00000000000000	0.00000000000000	1.73668300000000	0.00000000000000	0.00000000000000	0.00000000000000	0.00000000000000	
1.44999700000000	-2.68948200000000	737.18003899999997	48.63245800000000	0.01464200000000	0.00000000000000	0.10856000000000	0.00000000000000	0.00000000000000	0.00000000000000	0.00000000000000	0.00000000000000	0.00000000000000	0.00000000000000	1.75453400000000	0.00000000000000	0.00000000000000	0.00000000000000	0.00000000000000	
1.45166300000000	-3.16021100000000	737.71413299999995	48.65232200000000	0.01359900000000	0.00000000000000	0.10854000000000	0.00000000000000	0.00000000000000	0.00000000000000	0.00000000000000	0.00000000000000	0.00000000000000	0.00000000000000	1.77223800000000	0.00000000000000	0.00000000000000	0.00000000000000	0.00000000000000	
1.45332600000000	-3.62876800000000	738.24335299999996	48.67333600000000	0.01256300000000	0.00000000000000	0.10852100000000	0.00000000000000	0.00000000000000	0.00000000000000	0.00000000000000	0.00000000000000	0.00000000000000	0.00000000000000	1.78979200000000	0.00000000000000	0.00000000000000	0.00000000000000	0.00000000000000	
1.45501200000000	-4.09511100000000	738.76804500000003	48.69565900000000	0.01153200000000	0.00000000000000	0.10850100000000	0.00000000000000	0.00000000000000	0.00000000000000	0.00000000000000	0.00000000000000	0.00000000000000	0.00000000000000	1.80719200000000	0.00000000000000	0.00000000000000	0.00000000000000	0.00000000000000	
1.45666300000000	-4.55921200000000	739.28859499999999	48.71945800000000	0.01050700000000	0.00000000000000	0.10848200000000	0.00000000000000	0.00000000000000	0.00000000000000	0.00000000000000	0.00000000000000	0.00000000000000	0.00000000000000	1.82443800000000	0.00000000000000	0.00000000000000	0.00000000000000	0.00000000000000	
1.45833100000000	-5.02106400000000	739.80542500000001	48.74490400000000	0.00948800000000	0.00000000000000	0.10846300000000	0.00000000000000	0.00000000000000	0.00000000000000	0.00000000000000	0.00000000000000	0.00000000000000	0.00000000000000	1.84152900000000	0.00000000000000	0.00000000000000	0.00000000000000	0.00000000000000	
1.45999400000000	-5.48067100000000	740.31898500000000	48.77217100000000	0.00847500000000	0.00000000000000	0.10844400000000	0.00000000000000	0.00000000000000	0.00000000000000	0.00000000000000	0.00000000000000	0.00000000000000	0.00000000000000	1.85846300000000	0.00000000000000	0.00000000000000	0.00000000000000	0.00000000000000	
1.46165900000000	-5.93805500000000	740.82975699999997	48.80143700000000	0.00746800000000	0.00000000000000	0.10842500000000	0.00000000000000	0.00000000000000	0.00000000000000	0.00000000000000	0.00000000000000	0.00000000000000	0.00000000000000	1.87524000000000	0.00000000000000	0.00000000000000	0.00000000000000	0.00000000000000	
1.46332500000000	-6.39325400000000	741.33824200000004	48.83288200000000	0.00646600000000	0.00000000000000	0.10840700000000	0.00000000000000	0.00000000000000	0.00000000000000	0.00000000000000	0.00000000000000	0.00000000000000	0.00000000000000	1.89186100000000	0.00000000000000	0.00000000000000	0.00000000000000	0.00000000000000	
1.46499100000000	-6.84632100000000	741.84496700000000	48.86668700000000	0.00547000000000	0.00000000000000	0.10838900000000	0.00000000000000	0.00000000000000	0.00000000000000	0.00000000000000	0.00000000000000	0.00000000000000	0.00000000000000	1.90832400000000	0.00000000000000	0.00000000000000	0.00000000000000	0.00000000000000	
1.46665700000000	-7.29732100000000	742.35046899999998	48.90303300000000	0.00448000000000	0.00000000000000	0.10837100000000	0.00000000000000	0.00000000000000	0.00000000000000	0.00000000000000	0.00000000000000	0.00000000000000	0.00000000000000	1.92463000000000	0.00000000000000	0.00000000000000	0.00000000000000	0.00000000000000	
1.46832600000000	-7.74633600000000	742.85530400000005	48.94210000000000	0.00349400000000	0.00000000000000	0.10835300000000	0.00000000000000	0.00000000000000	0.00000000000000	0.00000000000000	0.00000000000000	0.00000000000000	0.00000000000000	1.94077900000000	0.00000000000000	0.00000000000000	0.00000000000000	0.00000000000000	
1.46999900000000	-8.19345900000000	743.36003300000004	48.98406700000000	0.00251400000000	0.00000000000000	0.10833600000000	0.00000000000000	0.00000000000000	0.00000000000000	0.00000000000000	0.00000000000000	0.00000000000000	0.00000000000000	1.95676800000000	0.00000000000000	0.00000000000000	0.00000000000000	0.00000000000000	
1.47166600000000	-8.63879800000000	743.86522400000001	49.02911000000000	0.00154000000000	0.00000000000000	0.10831900000000	0.00000000000000	0.00000000000000	0.00000000000000	0.00000000000000	0.00000000000000	0.00000000000000	0.00000000000000	1.97259600000000	0.00000000000000	0.00000000000000	0.00000000000000	0.00000000000000	
1.47332500000000	-9.08247200000000	744.37144400000000	49.07740300000000	0.00057000000000	0.00000000000000	0.10830300000000	0.00000000000000	0.00000000000000	0.00000000000000	0.00000000000000	0.00000000000000	0.00000000000000	0.00000000000000	1.98826100000000	0.00000000000000	0.00000000000000	0.00000000000000	0.00000000000000	
1.47499300000000	-9.52460900000000	744.87926100000004	49.12911400000000	-0.00039500000000	0.00000000000000	0.10828700000000	0.00000000000000	0.00000000000000	0.00000000000000	0.00000000000000	0.00000000000000	0.00000000000000	0.00000000000000	2.00375900000000	0.00000000000000	0.00000000000000	0.00000000000000	0.00000000000000	
1.47666500000000	-9.96535000000000	745.38923499999999	49.18440700000000	-0.00135500000000	0.00000000000000	0.10827100000000	0.00000000000000	0.00000000000000	0.00000000000000	0.00000000000000	0.00000000000000	0.00000000000000	0.00000000000000	2.01908600000000	0.00000000000000	0.00000000000000	0.00000000000000	0.00000000000000	
1.47832700000000	-10.40484300000000	745.90191700000003	49.24344100000000	-0.00231100000000	0.00000000000000	0.10825500000000	0.00000000000000	0.00000000000000	0.00000000000000	0.00000000000000	0.00000000000000	0.00000000000000	0.00000000000000	2.03423600000000	0.00000000000000	0.00000000000000	0.00000000000000	0.00000000000000	
1.47999600000000	-10.84324400000000	746.41784299999995	49.30636700000000	-0.00326200000000	0.00000000000000	0.10824000000000	0.00000000000000	0.00000000000000	0.00000000000000	0.00000000000000	0.00000000000000	0.00000000000000	0.00000000000000	2.04920200000000	0.00000000000000	0.00000000000000	0.00000000000000	0.00000000000000	
1.48166000000000	-11.28071700000000	746.93753600000002	49.37333200000000	-0.00421000000000	0.00000000000000	0.10822500000000	0.00000000000000	0.00000000000000	0.00000000000000	0.00000000000000	0.00000000000000	0.00000000000000	0.00000000000000	2.06397600000000	0.00000000000000	0.00000000000000	0.00000000000000	0.00000000000000	
1.48332900000000	-11.71743200000000	747.46149600000001	49.44447200000000	-0.00515300000000	0.00000000000000	0.10821100000000	0.00000000000000	0.00000000000000	0.00000000000000	0.00000000000000	0.00000000000000	0.00000000000000	0.00000000000000	2.07854600000000	0.00000000000000	0.00000000000000	0.00000000000000	0.00000000000000	
1.48499500000000	-12.15356200000000	747.99019999999996	49.51991700000000	-0.00609200000000	0.00000000000000	0.10819700000000	0.00000000000000	0.00000000000000	0.00000000000000	0.00000000000000	0.00000000000000	0.00000000000000	0.00000000000000	2.09290200000000	0.00000000000000	0.00000000000000	0.00000000000000	0.00000000000000	
1.48666400000000	-12.58928300000000	748.52409799999998	49.59978800000000	-0.00702700000000	0.00000000000000	0.10818400000000	0.00000000000000	0.00000000000000	0.00000000000000	0.00000000000000	0.00000000000000	0.00000000000000	0.00000000000000	2.10702800000000	0.00000000000000	0.00000000000000	0.00000000000000	0.00000000000000	
1.48833300000000	-13.02477500000000	749.06361300000003	49.68419500000000	-0.00795900000000	0.00000000000000	0.10817100000000	0.00000000000000	0.00000000000000	0.00000000000000	0.00000000000000	0.00000000000000	0.00000000000000	0.00000000000000	2.12090800000000	0.00000000000000	0.00000000000000	0.00000000000000	0.00000000000000	
1.48999000000000	-13.46021800000000	749.60913200000005	49.77324100000000	-0.00888700000000	0.00000000000000	0.10815800000000	0.00000000000000	0.00000000000000	0.00000000000000	0.00000000000000	0.00000000000000	0.00000000000000	0.00000000000000	2.13452500000000	0.00000000000000	0.00000000000000	0.00000000000000	0.00000000000000	
